<svg width="15" height="21" viewBox="0 0 15 21" fill="none" xmlns="http://www.w3.org/2000/svg">
<path d="M1.64014 9.91406L5.54639 11.7891C6.28857 12.1797 6.17139 13.2734 5.39014 13.4688L1.17139 14.5234C1.09326 14.5234 1.01514 14.5625 0.937012 14.5625C0.507324 14.5625 0.116699 14.2109 0.0776367 13.7422C0.0385742 13.4688 -0.000488281 13.1562 -0.000488281 12.8828C-0.000488281 12.0234 0.155762 11.2031 0.429199 10.4219C0.546387 10.0703 0.858887 9.83594 1.24951 9.83594C1.40576 9.83594 1.52295 9.83594 1.64014 9.91406ZM3.35889 19.25C3.12451 19.0938 2.96826 18.8203 2.96826 18.5078C2.96826 18.2734 3.08545 18.0781 3.20264 17.9219L6.13232 14.7188C6.6792 14.0938 7.69482 14.4844 7.65576 15.3438L7.49951 19.6406C7.49951 20.1484 7.10889 20.5391 6.64014 20.5391C6.56201 20.5391 6.52295 20.5 6.48389 20.5C5.35107 20.3047 4.29639 19.875 3.35889 19.25ZM9.06201 14.9531C8.59326 14.25 9.29639 13.3906 10.0776 13.625L14.2183 14.9531C14.5698 15.1094 14.8042 15.4219 14.8042 15.8125C14.8042 15.9688 14.8042 16.0859 14.7261 16.2031C14.2573 17.2188 13.5542 18.1172 12.6948 18.8594C12.5386 18.9766 12.3433 19.0547 12.1089 19.0547C11.7964 19.0547 11.5229 18.8984 11.3667 18.625L9.06201 14.9531ZM14.8433 9.79688C14.8823 9.91406 14.9214 10.0312 14.9214 10.1484C14.9214 10.5391 14.6479 10.8906 14.2964 11.0078L10.1167 12.2188C9.29639 12.4531 8.67139 11.5547 9.14014 10.8516L11.562 7.25781C11.7183 7.02344 11.9917 6.86719 12.3042 6.86719C12.4995 6.86719 12.7339 6.94531 12.8901 7.10156C13.7104 7.84375 14.3745 8.74219 14.8433 9.79688ZM2.42139 1.71094C3.74951 1.04688 5.23389 0.65625 6.79639 0.539062C6.83545 0.539062 6.83545 0.539062 6.87451 0.539062C7.34326 0.539062 7.73389 0.929688 7.73389 1.39844V9.5625C7.73389 10.4609 6.56201 10.7734 6.09326 9.99219L2.03076 2.96094C1.95264 2.80469 1.91357 2.64844 1.91357 2.49219C1.91357 2.14062 2.10889 1.82812 2.42139 1.71094Z" fill="#5B6770"/>
<path d="M-0.000488281 19.9531H14.9995V20.9297H-0.000488281V19.9531Z" fill="#5B6770"/>
</svg>
