<svg width="95" height="96" viewBox="0 0 95 96" fill="none" xmlns="http://www.w3.org/2000/svg">
<circle cx="47.5008" cy="48.1188" r="47.2899" fill="#F8F8F8"/>
<mask id="mask0_7025_71" style="mask-type:alpha" maskUnits="userSpaceOnUse" x="21" y="24" width="51" height="50">
<path fill-rule="evenodd" clip-rule="evenodd" d="M23.8224 25.7574C23.73 25.6648 23.6123 25.6016 23.484 25.5759C23.3558 25.5503 23.2228 25.5633 23.1019 25.6133C22.981 25.6633 22.8777 25.748 22.8051 25.8568C22.7324 25.9656 22.6937 26.0935 22.6938 26.2243V28.096C22.6849 28.2712 22.7459 28.4428 22.8635 28.573C22.9811 28.7032 23.1456 28.7813 23.3208 28.7902C23.496 28.7991 23.6676 28.7381 23.7978 28.6205C23.928 28.5029 24.0061 28.3384 24.015 28.1632C24.015 28.1412 24.0183 28.1186 24.0183 28.096V26.2243C24.0181 26.1375 24.0008 26.0515 23.9674 25.9714C23.9339 25.8913 23.885 25.8186 23.8235 25.7574H23.8224ZM70.1476 25.7574C70.0553 25.6648 69.9375 25.6016 69.8093 25.5759C69.681 25.5503 69.548 25.5633 69.4272 25.6133C69.3063 25.6633 69.203 25.748 69.1303 25.8568C69.0577 25.9656 69.019 26.0935 69.0191 26.2243V28.096C69.0191 28.1186 69.0191 28.1412 69.0224 28.1632C69.0313 28.3384 69.1094 28.5029 69.2396 28.6205C69.3698 28.7381 69.5414 28.7991 69.7166 28.7902C69.8918 28.7813 70.0563 28.7032 70.1739 28.573C70.2915 28.4428 70.3525 28.2712 70.3436 28.096V26.2243C70.3434 26.1375 70.3261 26.0515 70.2926 25.9714C70.2592 25.8913 70.2103 25.8186 70.1487 25.7574H70.1476ZM64.5582 25.0197H64.0627C63.771 25.0206 63.4914 25.1369 63.2851 25.3432C63.0788 25.5495 62.9625 25.829 62.9617 26.1208V71.3846C62.9625 71.6764 63.0788 71.9559 63.2851 72.1622C63.4914 72.3685 63.771 72.4848 64.0627 72.4857H64.5582C64.8499 72.4848 65.1295 72.3685 65.3358 72.1622C65.5421 71.9559 65.6584 71.6764 65.6592 71.3846V26.1197C65.6584 25.8279 65.5421 25.5484 65.3358 25.3421C65.1295 25.1358 64.8499 25.0195 64.5582 25.0186V25.0197ZM66.6072 26.8188V27.7349H68.07V26.8188H66.6072ZM60.9165 25.0197H60.4243C60.1323 25.0197 59.8522 25.1357 59.6458 25.3422C59.4393 25.5487 59.3233 25.8287 59.3233 26.1208V71.3846C59.3233 71.6766 59.4393 71.9567 59.6458 72.1632C59.8522 72.3697 60.1323 72.4857 60.4243 72.4857H60.9165C61.2082 72.4848 61.4878 72.3685 61.6941 72.1622C61.9004 71.9559 62.0167 71.6764 62.0175 71.3846V26.1197C62.0167 25.8279 61.9004 25.5484 61.6941 25.3421C61.4878 25.1358 61.2082 25.0195 60.9165 25.0186V25.0197ZM57.2748 25.0197H56.7826C56.4909 25.0206 56.2113 25.1369 56.005 25.3432C55.7987 25.5495 55.6824 25.829 55.6816 26.1208V71.3846C55.6824 71.6764 55.7987 71.9559 56.005 72.1622C56.2113 72.3685 56.4909 72.4848 56.7826 72.4857H57.2748C57.5668 72.4857 57.8469 72.3697 58.0533 72.1632C58.2598 71.9567 58.3758 71.6766 58.3758 71.3846V26.1197C58.3758 25.8276 58.2598 25.5476 58.0533 25.3411C57.8469 25.1346 57.5668 25.0186 57.2748 25.0186V25.0197ZM53.6336 25.0197H53.1409C52.8492 25.0206 52.5696 25.1369 52.3633 25.3432C52.157 25.5495 52.0407 25.829 52.0399 26.1208V71.3846C52.0407 71.6764 52.157 71.9559 52.3633 72.1622C52.5696 72.3685 52.8492 72.4848 53.1409 72.4857H53.6336C53.9254 72.4848 54.2049 72.3685 54.4112 72.1622C54.6175 71.9559 54.7338 71.6764 54.7347 71.3846V26.1197C54.7338 25.8279 54.6175 25.5484 54.4112 25.3421C54.2049 25.1358 53.9254 25.0195 53.6336 25.0186V25.0197ZM51.0919 42.5368V36.1507H50.0833V42.5368H51.0919ZM51.0919 50.2562V43.4847H50.0833V50.2562H51.0919ZM51.0919 57.9756V51.2042H50.0833V57.9756H51.0919ZM51.0919 65.695V58.9236H50.0833V65.695H51.0919ZM51.0919 69.4082H47.2382V33.0359H51.0919V35.1994H49.6088C49.4829 35.1994 49.3622 35.2494 49.2732 35.3384C49.1842 35.4274 49.1342 35.5481 49.1342 35.674V66.1695C49.1342 66.2954 49.1842 66.4161 49.2732 66.5051C49.3622 66.5941 49.4829 66.6441 49.6088 66.6441H51.0919V69.4082ZM38.8885 58.9247V65.6961H43.4418V58.9247H38.8885ZM27.0209 27.7349V26.8188H24.9663V27.7349H27.0209ZM38.393 49.8047H27.1717V51.322H38.393V49.8047ZM30.656 52.2711H27.9656V71.3846C27.9656 71.6766 28.0816 71.9567 28.2881 72.1632C28.4946 72.3697 28.7746 72.4857 29.0666 72.4857H29.5588C29.8508 72.4857 30.1309 72.3697 30.3373 72.1632C30.5438 71.9567 30.6598 71.6766 30.6598 71.3846V52.2711H30.656ZM33.0838 52.2711H31.6051V71.3846C31.5802 71.5852 31.6103 71.7887 31.6922 71.9735C31.7742 72.1582 31.9049 72.3172 32.0703 72.4334C32.1547 72.4793 32.2494 72.5033 32.3455 72.5033C32.4417 72.5033 32.5363 72.4793 32.6208 72.4334C32.7862 72.3172 32.9169 72.1582 32.9988 71.9735C33.0808 71.7887 33.1109 71.5852 33.086 71.3846V52.2711H33.0838ZM35.5116 52.2711H34.0329V71.3846C34.008 71.5852 34.0381 71.7887 34.12 71.9735C34.202 72.1582 34.3327 72.3172 34.4981 72.4334C34.5825 72.4793 34.6772 72.5033 34.7733 72.5033C34.8695 72.5033 34.9641 72.4793 35.0486 72.4334C35.214 72.3172 35.3447 72.1582 35.4266 71.9735C35.5086 71.7887 35.5387 71.5852 35.5138 71.3846V52.2711H35.5116ZM37.9388 52.2711H36.4607V71.3846C36.4358 71.5852 36.4659 71.7887 36.5478 71.9735C36.6298 72.1582 36.7605 72.3172 36.9259 72.4334C37.01 72.4789 37.1041 72.5027 37.1998 72.5027C37.2954 72.5027 37.3895 72.4789 37.4736 72.4334C37.6391 72.3173 37.7699 72.1583 37.8518 71.9736C37.9338 71.7888 37.9639 71.5852 37.9388 71.3846V52.2711ZM39.3427 51.2053V51.7965C39.3425 51.9188 39.2952 52.0363 39.2106 52.1246C39.126 52.2129 39.0106 52.2651 38.8885 52.2705V57.9756H43.4418V51.2042L39.3427 51.2053ZM31.5941 48.8551H33.2275C33.7444 44.9321 34.0923 41.0168 34.2735 37.2754C34.4661 33.3155 34.4738 29.5511 34.2999 26.1786V26.1527V26.1472V26.1351V26.1202C34.3014 25.8906 34.2282 25.6668 34.0912 25.4826C33.9542 25.2983 33.761 25.1637 33.5407 25.099C33.16 24.9698 32.7472 24.9698 32.3664 25.099C32.1462 25.1637 31.9529 25.2983 31.816 25.4826C31.679 25.6668 31.6058 25.8906 31.6073 26.1202V48.7521C31.6073 48.7867 31.6036 48.8213 31.5963 48.8551H31.5941ZM28.0261 48.8551H30.6136L30.6521 28.2507C30.6521 28.2371 30.6521 28.2234 30.6521 28.2094C30.6513 28.1951 30.6513 28.1808 30.6521 28.1665V27.11V26.1164C30.6521 25.825 30.5367 25.5455 30.331 25.3392C30.1253 25.1328 29.8463 25.0163 29.5549 25.0153H29.0556C28.7644 25.017 28.4857 25.134 28.2805 25.3407C28.179 25.4418 28.0985 25.5619 28.0435 25.6941C27.9886 25.8264 27.9602 25.9682 27.9601 26.1114V26.1158V26.2975C27.9609 26.3118 27.9609 26.3261 27.9601 26.3404C27.9601 26.3542 27.9601 26.3679 27.9601 26.3812L27.965 28.1626C27.965 28.1766 27.965 28.1909 27.965 28.2056C27.965 28.2193 27.965 28.2326 27.965 28.2458L28.0234 48.8512L28.0261 48.8551ZM26.6972 48.8551H27.0825L27.0275 28.684H24.854C24.716 29.0322 24.4609 29.3215 24.1327 29.502C23.8045 29.6826 23.4236 29.7431 23.0556 29.6733C22.6876 29.6034 22.3554 29.4075 22.1161 29.1193C21.8769 28.831 21.7455 28.4684 21.7447 28.0938V26.2221C21.7448 25.8258 21.891 25.4436 22.1553 25.1483C22.4195 24.8531 22.7834 24.6656 23.1771 24.6217C23.5709 24.5779 23.9671 24.6807 24.2898 24.9105C24.6126 25.1403 24.8393 25.481 24.9267 25.8675H27.0297C27.0924 25.3729 27.3329 24.9179 27.7064 24.5876C28.0799 24.2572 28.5608 24.0741 29.0595 24.0723H29.5588C30.1004 24.073 30.6195 24.2886 31.0023 24.6718C31.0463 24.7158 31.0881 24.7615 31.1278 24.8089C31.3785 24.532 31.6957 24.3235 32.0493 24.2033C32.6337 23.9999 33.2696 23.9999 33.854 24.2033C34.206 24.3228 34.5219 24.5297 34.7722 24.8045C35.0226 24.5297 35.3385 24.3228 35.6905 24.2033C36.2748 23.9999 36.9108 23.9999 37.4951 24.2033C37.8485 24.3238 38.1654 24.5322 38.4161 24.8089C38.4552 24.7615 38.4971 24.7158 38.5405 24.6723C38.7304 24.4817 38.956 24.3303 39.2045 24.2271C39.4529 24.1238 39.7193 24.0707 39.9884 24.0706H40.4806C40.9809 24.0715 41.4637 24.2548 41.8387 24.586C42.2136 24.9173 42.455 25.3739 42.5175 25.8703H51.1073C51.1693 25.3742 51.41 24.9177 51.7843 24.5864C52.1587 24.255 52.641 24.0714 53.1409 24.0701H53.6336C53.9026 24.0702 54.1689 24.1234 54.4173 24.2266C54.6656 24.3299 54.8912 24.4812 55.081 24.6718C55.1255 24.7164 55.1679 24.7626 55.2081 24.8111C55.2483 24.7626 55.2907 24.7164 55.3353 24.6718C55.5251 24.4812 55.7506 24.3299 55.999 24.2266C56.2473 24.1234 56.5136 24.0702 56.7826 24.0701H57.2748C57.5439 24.0701 57.8103 24.1233 58.0587 24.2265C58.3072 24.3298 58.5328 24.4811 58.7227 24.6718C58.7672 24.7164 58.8091 24.7626 58.8498 24.8111C58.89 24.7626 58.9324 24.7164 58.9764 24.6718C59.1663 24.4811 59.3919 24.3298 59.6404 24.2265C59.8888 24.1233 60.1553 24.0701 60.4243 24.0701H60.9165C61.1855 24.0702 61.4518 24.1234 61.7001 24.2266C61.9485 24.3299 62.174 24.4812 62.3638 24.6718C62.4084 24.7164 62.4508 24.7626 62.491 24.8111C62.5312 24.7626 62.5736 24.7164 62.6181 24.6718C62.8079 24.4812 63.0335 24.3299 63.2818 24.2266C63.5302 24.1234 63.7965 24.0702 64.0655 24.0701H64.5609C65.0608 24.0714 65.543 24.2549 65.9173 24.5861C66.2917 24.9174 66.5324 25.3737 66.5946 25.8697H68.1096C68.197 25.4832 68.4237 25.1425 68.7465 24.9127C69.0692 24.6829 69.4654 24.5801 69.8592 24.6239C70.2529 24.6678 70.6168 24.8553 70.881 25.1505C71.1453 25.4458 71.2915 25.828 71.2916 26.2243V28.096C71.2908 28.4706 71.1594 28.8332 70.9202 29.1215C70.6809 29.4097 70.3487 29.6056 69.9807 29.6755C69.6127 29.7453 69.2318 29.6848 68.9036 29.5042C68.5754 29.3237 68.3203 29.0344 68.1823 28.6862H66.6072V71.3846C66.6061 71.9277 66.3898 72.4482 66.0058 72.8322C65.6218 73.2162 65.1013 73.4325 64.5582 73.4337H64.0627C63.7938 73.4336 63.5275 73.3805 63.2791 73.2774C63.0307 73.1742 62.8052 73.023 62.6154 72.8325C62.5708 72.7879 62.5284 72.7417 62.4882 72.6932C62.448 72.7417 62.4056 72.7879 62.361 72.8325C62.1712 73.023 61.9457 73.1742 61.6973 73.2774C61.449 73.3805 61.1827 73.4336 60.9137 73.4337H60.4243C60.1553 73.4337 59.8889 73.3806 59.6404 73.2775C59.392 73.1743 59.1663 73.0231 58.9764 72.8325C58.9324 72.7879 58.89 72.7417 58.8498 72.6932C58.8091 72.7417 58.7672 72.7879 58.7227 72.8325C58.5328 73.0231 58.3071 73.1743 58.0587 73.2775C57.8102 73.3806 57.5438 73.4337 57.2748 73.4337H56.7826C56.5137 73.4336 56.2474 73.3805 55.999 73.2774C55.7507 73.1742 55.5251 73.023 55.3353 72.8325C55.2907 72.7879 55.2483 72.7417 55.2081 72.6932C55.1679 72.7417 55.1255 72.7879 55.081 72.8325C54.8912 73.023 54.6656 73.1742 54.4172 73.2774C54.1689 73.3805 53.9026 73.4336 53.6336 73.4337H53.1409C52.5978 73.4325 52.0773 73.2162 51.6933 72.8322C51.3093 72.4482 51.093 71.9277 51.0919 71.3846V70.3573H38.8885V71.3846C38.9182 71.7581 38.8433 72.1325 38.672 72.4658C38.5008 72.7991 38.24 73.078 37.919 73.2713C37.6979 73.3898 37.4509 73.4518 37.2 73.4518C36.9491 73.4518 36.7022 73.3898 36.481 73.2713C36.291 73.1698 36.1227 73.0322 35.9856 72.8661C35.8484 73.0322 35.6801 73.1698 35.4901 73.2713C35.269 73.3898 35.022 73.4518 34.7711 73.4518C34.5202 73.4518 34.2733 73.3898 34.0521 73.2713C33.8621 73.1698 33.6938 73.0322 33.5567 72.8661C33.4195 73.0322 33.2512 73.1698 33.0612 73.2713C32.8401 73.3898 32.5931 73.4518 32.3422 73.4518C32.0913 73.4518 31.8444 73.3898 31.6232 73.2713C31.3993 73.1514 31.2057 72.9819 31.0573 72.7758C31.0391 72.7956 31.0204 72.8149 31.0023 72.8341C30.8124 73.0247 30.5867 73.1759 30.3382 73.279C30.0898 73.3822 29.8234 73.4353 29.5544 73.4353H29.0666C28.5235 73.4344 28.0028 73.2183 27.6187 72.8342C27.2346 72.4501 27.0185 71.9294 27.0176 71.3863V52.2711H26.6994C26.6371 52.2711 26.5754 52.2588 26.5178 52.2349C26.4602 52.2111 26.4079 52.1761 26.3638 52.1321C26.3198 52.088 26.2848 52.0357 26.261 51.9781C26.2371 51.9205 26.2248 51.8588 26.2248 51.7965V49.3296C26.2248 49.2038 26.2748 49.0831 26.3638 48.9941C26.4528 48.9051 26.5735 48.8551 26.6994 48.8551H26.6972ZM37.9851 26.3459C37.9878 26.7038 37.9906 27.0429 37.9933 27.3831C38.0484 34.1776 38.1084 41.4385 35.3343 48.8534H34.1821C34.6935 44.9447 35.0387 41.0465 35.2198 37.3184C35.4141 33.3265 35.4218 29.5301 35.2468 26.1279V26.1197C35.2452 25.8901 35.3185 25.6663 35.4555 25.482C35.5924 25.2978 35.7857 25.1631 36.0059 25.0984C36.3867 24.9692 36.7994 24.9692 37.1802 25.0984C37.4004 25.1631 37.5936 25.2978 37.7305 25.4821C37.8673 25.6663 37.9405 25.8901 37.9388 26.1197C37.9389 26.1897 37.9545 26.2589 37.9845 26.3222C37.9845 26.33 37.9845 26.3382 37.9845 26.3465L37.9851 26.3459ZM37.6933 48.8551C41.3064 42.5791 41.6069 34.8972 41.5937 28.2513C41.5937 28.2375 41.5937 28.2237 41.5937 28.2094C41.5937 28.1951 41.5937 28.1825 41.5937 28.1692C41.5937 27.5666 41.5906 26.9733 41.5844 26.3894C41.5835 26.3744 41.5835 26.3593 41.5844 26.3443C41.5844 26.3316 41.5844 26.3184 41.5844 26.3057V26.1648C41.5835 26.1498 41.5835 26.1347 41.5844 26.1197C41.5835 25.8279 41.4672 25.5484 41.2609 25.3421C41.0546 25.1358 40.7751 25.0195 40.4833 25.0186H39.9912C39.6992 25.0186 39.4191 25.1346 39.2126 25.3411C39.0061 25.5476 38.8901 25.8276 38.8901 26.1197C38.8901 26.1296 38.8901 26.1395 38.8901 26.1494C38.9178 26.21 38.9321 26.2759 38.932 26.3426L38.9402 27.3765C38.9953 34.1551 39.0553 41.3928 36.3429 48.8551H37.6933ZM40.9513 43.4858C40.427 45.3499 39.6988 47.1505 38.78 48.8551H38.8681C38.994 48.8551 39.1147 48.9051 39.2037 48.9941C39.2927 49.0831 39.3427 49.2038 39.3427 49.3296V50.2562H43.4418V43.4847L40.9513 43.4858ZM42.2593 36.1485C42.0768 38.3015 41.725 40.4368 41.2073 42.5345H43.4418V36.1485H42.2593ZM42.4614 33.0359H46.288V69.4082H38.8885V66.6441H43.9164C44.0422 66.6441 44.1629 66.5941 44.2519 66.5051C44.3409 66.4161 44.3909 66.2954 44.3909 66.1695V35.674C44.3909 35.5481 44.3409 35.4274 44.2519 35.3384C44.1629 35.2494 44.0422 35.1994 43.9164 35.1994H42.338C42.3913 34.4742 42.4324 33.753 42.4614 33.0359ZM42.5269 30.5992C42.5199 31.0914 42.5093 31.5869 42.4949 32.0857H51.0919V30.5992H42.5269ZM42.5401 28.684C42.5401 29.0038 42.5401 29.3259 42.5368 29.6501H51.0919V28.684H42.5401ZM42.5329 26.8188C42.5329 27.1216 42.5346 27.427 42.5379 27.7349H51.0919V26.8188H42.5329Z" fill="black"/>
</mask>
<g mask="url(#mask0_7025_71)">
<rect x="22.3781" y="11.3838" width="81.0684" height="81.0684" fill="#FEC500"/>
<path d="M21.7448 22.7842H72.4125V70.9185L47.712 70.9185H21.7448V22.7842Z" fill="#323232"/>
</g>
</svg>
