<svg width="95" height="96" viewBox="0 0 95 96" fill="none" xmlns="http://www.w3.org/2000/svg">
<circle cx="47.4896" cy="48.1939" r="47.2899" fill="#F8F8F8"/>
<mask id="mask0_4001_2579" style="mask-type:alpha" maskUnits="userSpaceOnUse" x="23" y="24" width="51" height="50">
<path d="M72.4558 24.126H24.6338C24.1971 24.126 23.8442 24.481 23.8442 24.9155V72.7375C23.8442 73.1742 24.1993 73.527 24.6338 73.527H72.4558C72.8924 73.527 73.2453 73.172 73.2453 72.7375V24.9155C73.2453 24.481 72.8902 24.126 72.4558 24.126ZM71.6641 32.0279H66.6137L66.6159 25.7074H71.6663L71.6641 32.0279ZM59.9839 42.6229H65.0343V58.2636H59.9839V42.6229ZM65.0343 32.8178V41.0415H59.9839V25.7074H65.0343V32.8178ZM58.4027 32.0282H50.6747V25.7077H58.4027V32.0282ZM49.0938 32.8178V54.7637L41.3641 54.7659V25.7073H49.0921L49.0938 32.8178ZM34.7342 51.1159V42.6229H39.7846V58.2636H34.7342V51.1159ZM39.7846 41.0415H34.7342V25.7074H39.7846V41.0415ZM25.4249 25.7074H33.1529V50.3261L25.4249 50.3239V25.7074ZM25.4249 51.9052H33.1529V71.9457H25.4249V51.9052ZM34.7338 59.8427H39.7842V71.9463H34.7338V59.8427ZM41.3631 59.0532V56.345H49.0912L49.0934 71.9461H41.3636L41.3631 59.0532ZM50.6743 55.5554V33.6095H58.4023V71.9459H50.6743V55.5554ZM59.9831 59.8428H65.0335V71.9464H59.9831V59.8428ZM71.6633 71.9464H66.6129L66.6151 59.0535V33.6099H71.6655L71.6633 71.9464Z" fill="black"/>
</mask>
<g mask="url(#mask0_4001_2579)">
<rect x="24.4776" y="12.7258" width="81.0684" height="81.0684" fill="#FEC500"/>
<path d="M23.8442 24.126H59.3117V73.527L42.0213 73.527H23.8442V24.126Z" fill="#323232"/>
</g>
</svg>
