<svg width="95" height="95" viewBox="0 0 95 95" fill="none" xmlns="http://www.w3.org/2000/svg">
<circle cx="47.4895" cy="47.4298" r="47.2899" fill="#F8F8F8"/>
<mask id="mask0_7025_72" style="mask-type:alpha" maskUnits="userSpaceOnUse" x="22" y="23" width="50" height="51">
<path d="M45.6978 34.2035H48.0135C48.2182 34.2035 48.4145 34.1222 48.5593 33.9774C48.7041 33.8326 48.7854 33.6363 48.7854 33.4316C48.7854 33.2269 48.7041 33.0305 48.5593 32.8858C48.4145 32.741 48.2182 32.6597 48.0135 32.6597H45.6978C45.4931 32.6597 45.2968 32.741 45.152 32.8858C45.0072 33.0305 44.9259 33.2269 44.9259 33.4316C44.9259 33.6363 45.0072 33.8326 45.152 33.9774C45.2968 34.1222 45.4931 34.2035 45.6978 34.2035Z" fill="black"/>
<path d="M70.7842 71.6412H70.0123C70.0123 71.6412 70.0121 38.2302 70.0123 38.1926C70.0129 38.0607 69.9797 37.9309 69.9159 37.8155C69.8521 37.7 69.7598 37.6029 69.6479 37.5332L48.0066 24.0836C47.6548 23.8871 47.2585 23.7839 46.8555 23.7839C46.4525 23.7839 46.0562 23.8871 45.7043 24.0836C45.6947 24.089 45.6849 24.0949 45.6755 24.1007L24.0633 37.5332C23.9513 37.6028 23.8589 37.6999 23.7951 37.8154C23.7313 37.9308 23.6982 38.0607 23.6988 38.1926C23.699 38.2302 23.6988 71.6412 23.6988 71.6412H22.9269C22.7222 71.6412 22.5259 71.7225 22.3811 71.8673C22.2364 72.012 22.155 72.2084 22.155 72.4131C22.155 72.6178 22.2364 72.8141 22.3811 72.9589C22.5259 73.1037 22.7222 73.185 22.9269 73.185H70.7842C70.9889 73.185 71.1853 73.1037 71.33 72.9589C71.4748 72.8141 71.5561 72.6178 71.5561 72.4131C71.5561 72.2084 71.4748 72.012 71.33 71.8673C71.1853 71.7225 70.9889 71.6412 70.7842 71.6412ZM39.176 29.9581H54.5351L66.3337 37.2912H27.3773L39.176 29.9581ZM36.821 38.835V41.9227H35.2772V38.835H36.821ZM39.9086 38.835V41.9227H38.3648V38.835H39.9086ZM42.9961 38.835V41.9227H41.4523V38.835H42.9961ZM46.0837 38.835V41.9227H44.5399V38.835H46.0837ZM49.1712 38.835V41.9227H47.6275V38.835H49.1712ZM52.2588 38.835V41.9227H50.715V38.835H52.2588ZM55.3464 38.835V41.9227H53.8026V38.835H55.3464ZM58.4339 38.835V41.9227H56.8902V38.835H58.4339ZM66.6918 38.835L61.6138 41.9227H59.9777V38.835H66.6918ZM61.1356 43.4665V46.918L57.8999 43.4665H61.1356ZM35.8113 43.4665L32.5756 46.918V43.4665L35.8113 43.4665ZM33.7334 41.9227H32.0973L27.0192 38.835H33.7334V41.9227ZM31.0318 62.3783H25.2426V39.5616L31.0318 43.0817V62.3783ZM32.5756 49.1752L37.9272 43.4665H55.784L61.1356 49.1752V68.5535H32.5756V49.1752ZM62.6793 63.9221H68.4685V68.5535H62.6793V63.9221ZM62.6793 62.3783V43.0817L68.4685 39.5616V62.3783H62.6793ZM25.2426 63.9221H31.0318V68.5535H25.2426V63.9221ZM25.2426 70.0973H68.4685V71.6412H25.2426V70.0973ZM46.4738 25.4224C46.588 25.3598 46.7158 25.3262 46.846 25.3244C46.9762 25.3226 47.1049 25.3527 47.2208 25.412L52.0512 28.4143H41.6599L46.4738 25.4224Z" fill="black"/>
</mask>
<g mask="url(#mask0_7025_72)">
<rect x="22.7885" y="12.3838" width="81.0684" height="81.0684" fill="#FEC500"/>
<path d="M22.155 23.7839H72.8228V68.618L48.1222 68.6066H22.155V23.7839Z" fill="#323232"/>
</g>
</svg>
