<svg width="20" height="20" viewBox="0 0 20 20" fill="none" xmlns="http://www.w3.org/2000/svg">
<circle cx="10" cy="10" r="10" fill="#FB7721"/>
<path d="M15.8754 14.0798C15.1957 15.7091 13.6022 15.9947 13.0815 15.9947C12.9285 15.9947 10.5471 16.121 7.12384 12.8738C4.36886 10.2605 4.03224 7.45036 4.00291 6.91643C3.97438 6.39636 4.1233 5.09173 5.918 4.12239C6.14037 4.00227 6.58124 3.94908 6.69509 4.06293C6.74562 4.11346 8.25196 6.5922 8.29155 6.67432C8.33115 6.75631 8.35101 6.8371 8.35101 6.91629C8.35101 7.02948 8.27036 7.17106 8.10891 7.3409C7.9476 7.51075 7.77215 7.66646 7.58245 7.80791C7.39274 7.94949 7.21729 8.09947 7.05585 8.25798C6.89454 8.41636 6.81388 8.54675 6.81388 8.6486C6.82481 8.91297 7.04145 9.85991 8.69177 11.31C10.3424 12.7605 11.1374 13.1691 11.2138 13.1973C11.2904 13.2256 11.354 13.2396 11.4049 13.2396C11.5069 13.2396 11.6371 13.1591 11.7956 12.9978C11.954 12.8363 12.4869 12.106 12.6567 11.9446C12.8266 11.7834 12.9681 11.7027 13.0815 11.7027C13.1607 11.7027 13.2413 11.7225 13.3233 11.7621C13.4054 11.8017 15.8874 13.254 15.9348 13.3025C16.0636 13.4345 15.9727 13.8465 15.8754 14.0798Z" fill="white"/>
</svg>
