<svg width="96" height="96" viewBox="0 0 96 96" fill="none" xmlns="http://www.w3.org/2000/svg">
<path d="M95.2247 48.119C95.2247 74.2365 74.0523 95.4089 47.9348 95.4089C21.8173 95.4089 0.644897 74.2365 0.644897 48.119C0.644897 22.0015 21.8173 0.829102 47.9348 0.829102C74.0523 0.829102 95.2247 22.0015 95.2247 48.119Z" fill="#F8F8F8"/>
<mask id="mask0_4001_2488" style="mask-type:alpha" maskUnits="userSpaceOnUse" x="23" y="23" width="50" height="50">
<path d="M71.6043 53.2781C71.8156 53.2781 72.0182 53.1941 72.1677 53.0447C72.3171 52.8953 72.401 52.6926 72.401 52.4813V23.7968C72.401 23.5855 72.3171 23.3828 72.1677 23.2334C72.0182 23.0839 71.8156 23 71.6043 23H23.7968C23.5855 23 23.3828 23.0839 23.2334 23.2334C23.0839 23.3828 23 23.5855 23 23.7968V52.4813C23 52.6926 23.0839 52.8953 23.2334 53.0447C23.3828 53.1941 23.5855 53.2781 23.7968 53.2781H24.5936V67.6203H23.7968C23.5855 67.6203 23.3828 67.7042 23.2334 67.8537C23.0839 68.0031 23 68.2058 23 68.4171V71.6043C23 71.8156 23.0839 72.0182 23.2334 72.1677C23.3828 72.3171 23.5855 72.401 23.7968 72.401H71.6043C71.8156 72.401 72.0182 72.3171 72.1677 72.1677C72.3171 72.0182 72.401 71.8156 72.401 71.6043V68.4171C72.401 68.2058 72.3171 68.0031 72.1677 67.8537C72.0182 67.7042 71.8156 67.6203 71.6043 67.6203H70.8075V53.2781H71.6043ZM62.8396 51.6845V50.0909H70.8075V51.6845H62.8396ZM34.1551 51.6845V50.0909H61.246V51.6845H34.1551ZM24.5936 51.6845V50.0909H32.5615V51.6845H24.5936ZM61.246 27.7807V29.3743H34.1551V27.7807H61.246ZM34.1551 26.1872V24.5936H61.246V26.1872H34.1551ZM61.246 34.1551V35.7487H34.1551V34.1551H61.246ZM34.1551 32.5615V30.9679H61.246V32.5615H34.1551ZM61.246 37.3422V38.9358H34.1551V37.3422H61.246ZM61.246 40.5294V42.123H34.1551V40.5294H61.246ZM61.246 43.7166V45.3102H34.1551V43.7166H61.246ZM61.246 46.9037V48.4973H34.1551V46.9037H61.246ZM62.8396 46.9037H70.8075V48.4973H62.8396V46.9037ZM62.8396 45.3102V43.7166H70.8075V45.3102H62.8396ZM62.8396 42.123V40.5294H70.8075V42.123H62.8396ZM62.8396 38.9358V37.3422H70.8075V38.9358H62.8396ZM62.8396 35.7487V34.1551H70.8075V35.7487H62.8396ZM62.8396 32.5615V30.9679H70.8075V32.5615H62.8396ZM62.8396 29.3743V27.7807H70.8075V29.3743H62.8396ZM32.5615 29.3743H24.5936V27.7807H32.5615V29.3743ZM32.5615 30.9679V32.5615H24.5936V30.9679H32.5615ZM32.5615 34.1551V35.7487H24.5936V34.1551H32.5615ZM32.5615 37.3422V38.9358H24.5936V37.3422H32.5615ZM32.5615 40.5294V42.123H24.5936V40.5294H32.5615ZM32.5615 43.7166V45.3102H24.5936V43.7166H32.5615ZM32.5615 46.9037V48.4973H24.5936V46.9037H32.5615ZM29.3743 53.2781H32.5615V55.0182C32.0299 55.2062 31.5818 55.5761 31.2965 56.0624C31.0112 56.5488 30.907 57.1204 31.0023 57.6761C31.0977 58.2319 31.3864 58.736 31.8176 59.0995C32.2487 59.463 32.7944 59.6623 33.3583 59.6623C33.9222 59.6623 34.4679 59.463 34.899 59.0995C35.3301 58.736 35.6189 58.2319 35.7142 57.6761C35.8096 57.1204 35.7054 56.5488 35.4201 56.0624C35.1348 55.5761 34.6867 55.2062 34.1551 55.0182V53.2781H43.7166V62.8396H29.3743V53.2781ZM34.1551 57.262C34.1551 57.4196 34.1083 57.5737 34.0208 57.7047C33.9332 57.8357 33.8088 57.9378 33.6632 57.9982C33.5176 58.0585 33.3574 58.0742 33.2028 58.0435C33.0483 58.0128 32.9063 57.9369 32.7949 57.8254C32.6834 57.714 32.6075 57.572 32.5768 57.4175C32.5461 57.2629 32.5618 57.1027 32.6221 56.9571C32.6825 56.8115 32.7846 56.6871 32.9156 56.5995C33.0466 56.512 33.2007 56.4652 33.3583 56.4652C33.5696 56.4652 33.7723 56.5492 33.9217 56.6986C34.0711 56.848 34.1551 57.0507 34.1551 57.262ZM51.6845 53.2781H61.246V55.0182C60.7143 55.2062 60.2663 55.5761 59.981 56.0624C59.6956 56.5488 59.5915 57.1204 59.6868 57.6761C59.7822 58.2319 60.0709 58.736 60.502 59.0995C60.9332 59.463 61.4789 59.6623 62.0428 59.6623C62.6066 59.6623 63.1524 59.463 63.5835 59.0995C64.0146 58.736 64.3034 58.2319 64.3987 57.6761C64.4941 57.1204 64.3899 56.5488 64.1046 56.0624C63.8193 55.5761 63.3712 55.2062 62.8396 55.0182V53.2781H66.0267V62.8396H51.6845V53.2781ZM62.8396 57.262C62.8396 57.4196 62.7928 57.5737 62.7053 57.7047C62.6177 57.8357 62.4933 57.9378 62.3477 57.9982C62.2021 58.0585 62.0419 58.0742 61.8873 58.0435C61.7328 58.0128 61.5908 57.9369 61.4793 57.8254C61.3679 57.714 61.292 57.572 61.2613 57.4175C61.2305 57.2629 61.2463 57.1027 61.3066 56.9571C61.3669 56.8115 61.4691 56.6871 61.6001 56.5995C61.7311 56.512 61.8852 56.4652 62.0428 56.4652C62.2541 56.4652 62.4568 56.5492 62.6062 56.6986C62.7556 56.848 62.8396 57.0507 62.8396 57.262ZM70.8075 26.1872H62.8396V24.5936H70.8075V26.1872ZM32.5615 24.5936V26.1872H24.5936V24.5936H32.5615ZM26.1872 53.2781H27.7807V63.6363C27.7807 63.8477 27.8647 64.0503 28.0141 64.1998C28.1635 64.3492 28.3662 64.4331 28.5775 64.4331H44.5134C44.7247 64.4331 44.9273 64.3492 45.0768 64.1998C45.2262 64.0503 45.3102 63.8477 45.3102 63.6363V53.2781H46.9037V67.6203H26.1872V53.2781ZM70.8075 70.8075H24.5936V69.2139H70.8075V70.8075ZM69.2139 67.6203H48.4973V53.2781H50.0909V63.6363C50.0909 63.8477 50.1748 64.0503 50.3243 64.1998C50.4737 64.3492 50.6764 64.4331 50.8877 64.4331H66.8235C67.0348 64.4331 67.2375 64.3492 67.3869 64.1998C67.5364 64.0503 67.6203 63.8477 67.6203 63.6363V53.2781H69.2139V67.6203Z" fill="black"/>
</mask>
<g mask="url(#mask0_4001_2488)">
<rect x="22.3666" y="6.69141" width="81.0684" height="81.0684" fill="#FEC500"/>
<path d="M21.7333 17.5784H72.401V67.6128L47.7005 67.6128H21.7333V17.5784Z" fill="#323232"/>
</g>
</svg>
