<svg width="18" height="18" viewBox="0 0 18 18" fill="none" xmlns="http://www.w3.org/2000/svg">
<circle cx="9" cy="9" r="9" fill="#FE7721"/>
<path d="M4.98438 9.14844L7.32812 10.2734C7.77344 10.5078 7.70312 11.1641 7.23438 11.2812L4.70312 11.9141C4.65625 11.9141 4.60938 11.9375 4.5625 11.9375C4.30469 11.9375 4.07031 11.7266 4.04688 11.4453C4.02344 11.2812 4 11.0938 4 10.9297C4 10.4141 4.09375 9.92188 4.25781 9.45312C4.32812 9.24219 4.51562 9.10156 4.75 9.10156C4.84375 9.10156 4.91406 9.10156 4.98438 9.14844ZM6.01562 14.75C5.875 14.6562 5.78125 14.4922 5.78125 14.3047C5.78125 14.1641 5.85156 14.0469 5.92188 13.9531L7.67969 12.0312C8.00781 11.6562 8.61719 11.8906 8.59375 12.4062L8.5 14.9844C8.5 15.2891 8.26562 15.5234 7.98438 15.5234C7.9375 15.5234 7.91406 15.5 7.89062 15.5C7.21094 15.3828 6.57812 15.125 6.01562 14.75ZM9.4375 12.1719C9.15625 11.75 9.57812 11.2344 10.0469 11.375L12.5312 12.1719C12.7422 12.2656 12.8828 12.4531 12.8828 12.6875C12.8828 12.7812 12.8828 12.8516 12.8359 12.9219C12.5547 13.5312 12.1328 14.0703 11.6172 14.5156C11.5234 14.5859 11.4062 14.6328 11.2656 14.6328C11.0781 14.6328 10.9141 14.5391 10.8203 14.375L9.4375 12.1719ZM12.9062 9.07812C12.9297 9.14844 12.9531 9.21875 12.9531 9.28906C12.9531 9.52344 12.7891 9.73438 12.5781 9.80469L10.0703 10.5312C9.57812 10.6719 9.20312 10.1328 9.48438 9.71094L10.9375 7.55469C11.0312 7.41406 11.1953 7.32031 11.3828 7.32031C11.5 7.32031 11.6406 7.36719 11.7344 7.46094C12.2266 7.90625 12.625 8.44531 12.9062 9.07812ZM5.45312 4.22656C6.25 3.82812 7.14062 3.59375 8.07812 3.52344C8.10156 3.52344 8.10156 3.52344 8.125 3.52344C8.40625 3.52344 8.64062 3.75781 8.64062 4.03906V8.9375C8.64062 9.47656 7.9375 9.66406 7.65625 9.19531L5.21875 4.97656C5.17188 4.88281 5.14844 4.78906 5.14844 4.69531C5.14844 4.48438 5.26562 4.29688 5.45312 4.22656Z" fill="white"/>
</svg>
