<svg width="95" height="96" viewBox="0 0 95 96" fill="none" xmlns="http://www.w3.org/2000/svg">
<circle cx="47.4997" cy="48.1939" r="47.2899" fill="#F8F8F8"/>
<mask id="mask0_4001_2565" style="mask-type:alpha" maskUnits="userSpaceOnUse" x="33" y="24" width="28" height="50">
<path d="M60.0182 28.5418L57.5818 27.4977C57.3208 27.4107 57.0598 27.4107 56.8857 27.4977L55.5806 28.1938V26.1055C55.5806 25.7575 55.4065 25.4964 55.0585 25.3224L52.5351 24.1912C52.2741 24.1042 52.0131 24.1042 51.752 24.1912L34.0016 33.1535C33.7406 33.3275 33.5665 33.5885 33.5665 33.9366V66.9141C33.5665 67.2622 33.8276 67.6102 34.1756 67.6972L51.839 73.527C51.9261 73.527 52.0131 73.527 52.1001 73.527C52.1871 73.527 52.2741 73.527 52.3611 73.527L55.0585 72.6569C55.4065 72.5699 55.6676 72.2218 55.6676 71.7868V71.2647L57.0598 71.6998C57.2338 71.7868 57.4078 71.7868 57.5818 71.6998L59.9312 71.1777C60.2792 71.0907 60.5402 70.7426 60.5402 70.3076V29.3249C60.5402 28.9769 60.2792 28.7159 60.0182 28.5418ZM51.578 71.6998L35.2198 66.305V34.4586L51.578 26.1925V71.6998ZM53.9273 70.2206V71.3517L52.5351 71.7868V26.0185L53.8403 26.6276V29.499V29.586V70.2206H53.9273ZM56.7987 70.0465L54.9715 69.4375C54.8845 69.4375 54.7974 69.4375 54.7104 69.4375V30.3691C54.7974 30.3691 54.9715 30.3691 55.0585 30.2821L56.7117 29.499V70.0465H56.7987ZM58.8 69.6985L57.6688 70.0465V29.412L58.8 29.934V69.6985Z" fill="black"/>
</mask>
<g mask="url(#mask0_4001_2565)">
<rect x="34.1999" y="13.9924" width="81.0684" height="81.0684" fill="#FEC500"/>
<path d="M33.9308 23.1001H55.4646L56.098 26.2668L56.7313 27.7258V29.4336V69.9677L55.7338 69.7269V72.2603L55.4646 75.0345L44.9669 75.0345H33.9308V23.1001Z" fill="#323232"/>
</g>
</svg>
